<svg xmlns="http://www.w3.org/2000/svg" fill="none" viewBox="0 0 800 400">
    <g clip-path="url(#a)">
        <circle cx="63" cy="60" r="83" fill="#A0F7A3"/>
        <circle cx="104" cy="287" r="116" fill="#A0F7A3"/>
        <circle cx="254.5" cy="67.5" r="57.5" fill="#A0F7A3"/>
        <circle cx="332" cy="256" r="37" fill="#A0F7A3"/>
        <circle cx="423.5" cy="149.5" r="81.5" fill="#A0F7A3"/>
        <circle cx="560.423" cy="80.4228" r="57.5" fill="#A0F7A3" transform="rotate(75 560.423 80.4228)"/>
        <circle cx="408.383" cy="352.383" r="38.6882" fill="#A0F7A3" transform="rotate(75 408.383 352.383)"/>
        <circle cx="526.423" cy="270.423" r="57.5" fill="#A0F7A3" transform="rotate(75 526.423 270.423)"/>
        <circle cx="695.423" cy="102.423" r="57.5" fill="#A0F7A3" transform="rotate(75 695.423 102.423)"/>
        <circle cx="735.674" cy="292.674" r="122.208" fill="#A0F7A3" transform="rotate(75 735.674 292.674)"/>
        <path fill="#B966EB" d="M180.23 202.94c0-3.153-.88-5.903-2.64-8.25-1.687-2.42-4.143-3.63-7.37-3.63-1.393 0-2.64.183-3.74.55-1.1.367-2.053.77-2.86 1.21v18.81c1.027.953 2.31 1.76 3.85 2.42 1.54.587 3.007.88 4.4.88 3.007 0 5.133-1.32 6.38-3.96 1.32-2.713 1.98-5.39 1.98-8.03Zm-36.63 51.15v-77.33h10.01l3.41 4.62c2.713-2.127 5.573-3.74 8.58-4.84 3.08-1.173 6.307-1.76 9.68-1.76 8.58 0 14.997 2.64 19.25 7.92 4.253 5.28 6.38 11.88 6.38 19.8 0 7.993-2.127 14.777-6.38 20.35-4.18 5.573-10.963 8.36-20.35 8.36-1.76 0-3.557-.257-5.39-.77-1.833-.44-3.557-1.027-5.17-1.76v24.31l-20.02 1.1Zm77.146-84.7c-2.933 0-5.463-1.063-7.59-3.19s-3.19-4.657-3.19-7.59c0-3.007 1.063-5.573 3.19-7.7 2.127-2.2 4.657-3.3 7.59-3.3 3.007 0 5.573 1.1 7.7 3.3 2.2 2.127 3.3 4.693 3.3 7.7 0 2.933-1.1 5.463-3.3 7.59-2.127 2.127-4.693 3.19-7.7 3.19Zm-9.9 60.61v-53.35h20.02V230h-20.02Zm29.893-26.62c0-8.947 2.75-15.95 8.25-21.01 5.574-5.06 12.394-7.59 20.46-7.59 8.507 0 14.887 2.75 19.14 8.25 4.254 5.5 6.38 11.99 6.38 19.47v6.93h-32.45c.88 2.053 2.2 3.52 3.96 4.4 1.834.88 3.997 1.32 6.49 1.32 2.347 0 4.73-.22 7.15-.66 2.494-.44 4.767-1.173 6.82-2.2l5.61 13.53c-3.08 2.273-6.893 3.74-11.44 4.4-4.546.66-7.92.99-10.12.99-8.653 0-15.876-2.2-21.67-6.6-5.72-4.473-8.58-11.55-8.58-21.23Zm35.09-6.05c-.073-1.173-.623-2.53-1.65-4.07-1.026-1.613-2.786-2.42-5.28-2.42-1.833 0-3.336.587-4.51 1.76-1.1 1.1-1.906 2.677-2.42 4.73h13.86Zm67.511-3.41c-2.126-1.1-3.96-1.833-5.5-2.2-1.54-.44-3.263-.66-5.17-.66-2.713 0-5.133 1.1-7.26 3.3-2.126 2.2-3.19 5.207-3.19 9.02 0 3.74 1.064 6.6 3.19 8.58 2.127 1.98 4.547 2.97 7.26 2.97 1.76 0 3.447-.183 5.06-.55 1.614-.44 3.484-1.21 5.61-2.31l5.61 13.75c-3.08 2.42-6.343 3.923-9.79 4.51-3.446.587-6.27.88-8.47.88-8.653 0-15.693-2.383-21.12-7.15-5.353-4.84-8.03-11.733-8.03-20.68s2.677-15.95 8.03-21.01c5.427-5.06 12.467-7.59 21.12-7.59 2.2 0 5.024.293 8.47.88 3.447.587 6.71 2.09 9.79 4.51l-5.61 13.75Zm11.804 9.46c0-8.947 2.75-15.95 8.25-21.01 5.573-5.06 12.393-7.59 20.46-7.59 8.506 0 14.886 2.75 19.14 8.25 4.253 5.5 6.38 11.99 6.38 19.47v6.93h-32.45c.88 2.053 2.2 3.52 3.96 4.4 1.833.88 3.996 1.32 6.49 1.32 2.346 0 4.73-.22 7.15-.66 2.493-.44 4.766-1.173 6.82-2.2l5.61 13.53c-3.08 2.273-6.894 3.74-11.44 4.4-4.547.66-7.92.99-10.12.99-8.654 0-15.877-2.2-21.67-6.6-5.72-4.473-8.58-11.55-8.58-21.23Zm35.09-6.05c-.074-1.173-.624-2.53-1.65-4.07-1.027-1.613-2.787-2.42-5.28-2.42-1.834 0-3.337.587-4.51 1.76-1.1 1.1-1.907 2.677-2.42 4.73h13.86Zm78.401-16.5c2.2-1.247 4.913-2.567 8.14-3.96 3.3-1.393 7.04-2.09 11.22-2.09 6.966 0 12.026 2.127 15.18 6.38 3.153 4.18 4.73 9.46 4.73 15.84v33h-20.02v-32.56c0-2.053-.514-3.63-1.54-4.73-1.027-1.1-2.31-1.65-3.85-1.65-1.247 0-2.677.367-4.29 1.1-1.614.66-3.19 1.357-4.73 2.09v1.43c.073.44.11.88.11 1.32v33h-20.02v-32.56c0-2.053-.514-3.63-1.54-4.73-1.027-1.1-2.31-1.65-3.85-1.65-1.1 0-2.494.33-4.18.99-1.614.66-3.19 1.357-4.73 2.09V230h-20.02v-53.24h10.01l4.18 4.62c2.2-1.32 4.986-2.75 8.36-4.29 3.446-1.54 7.406-2.31 11.88-2.31 3.373 0 6.306.55 8.8 1.65 2.493 1.1 4.546 2.567 6.16 4.4Zm48.071 22.55c0-8.947 2.75-15.95 8.25-21.01 5.574-5.06 12.394-7.59 20.46-7.59 8.507 0 14.887 2.75 19.14 8.25 4.254 5.5 6.38 11.99 6.38 19.47v6.93h-32.45c.88 2.053 2.2 3.52 3.96 4.4 1.834.88 3.997 1.32 6.49 1.32 2.347 0 4.73-.22 7.15-.66 2.494-.44 4.767-1.173 6.82-2.2l5.61 13.53c-3.08 2.273-6.893 3.74-11.44 4.4-4.546.66-7.92.99-10.12.99-8.653 0-15.876-2.2-21.67-6.6-5.72-4.473-8.58-11.55-8.58-21.23Zm35.09-6.05c-.073-1.173-.623-2.53-1.65-4.07-1.026-1.613-2.786-2.42-5.28-2.42-1.833 0-3.336.587-4.51 1.76-1.1 1.1-1.906 2.677-2.42 4.73h13.86Zm42.431 14.74c0 .88.367 1.613 1.1 2.2.733.587 1.577.88 2.53.88 1.173 0 2.347-.257 3.52-.77s2.347-1.247 3.52-2.2v-3.96h-6.16c-1.32 0-2.42.367-3.3 1.1-.807.66-1.21 1.577-1.21 2.75Zm-14.96-32.23c2.787-1.247 6.307-2.383 10.56-3.41 4.253-1.1 8.58-1.65 12.98-1.65 7.26 0 12.76 2.017 16.5 6.05 3.74 4.033 5.61 9.423 5.61 16.17v33h-8.91l-3.63-4.07c-1.613 1.613-3.74 2.897-6.38 3.85-2.64.953-5.463 1.43-8.47 1.43-6.747 0-11.77-1.687-15.07-5.06-3.3-3.373-4.95-7.81-4.95-13.31 0-5.793 1.943-10.01 5.83-12.65 3.887-2.713 8.91-4.07 15.07-4.07h6.38c-.293-1.613-1.063-2.86-2.31-3.74-1.247-.88-2.787-1.32-4.62-1.32-1.833 0-3.997.33-6.49.99-2.493.587-4.767 1.32-6.82 2.2l-5.28-14.41ZM636.989 230v-76.45l20.02-1.21V230h-20.02Z"/>
    </g>
    <defs>
        <clipPath id="a">
            <path fill="#fff" d="M0 0h800v400H0z"/>
        </clipPath>
    </defs>
</svg>
